<?xml version="1.0" encoding="iso-8859-1"?>
<!-- Generator: Adobe Illustrator 19.0.0, SVG Export Plug-In . SVG Version: 6.00 Build 0)  -->
<svg version="1.1" id="Capa_1" xmlns="http://www.w3.org/2000/svg" xmlns:xlink="http://www.w3.org/1999/xlink" x="0px" y="0px"
	 viewBox="0 0 496 496" style="enable-background:new 0 0 496 496;" xml:space="preserve">
<g>
	<g>
		<path d="M396.176,314.104l-10.816,11.792c3.712,3.408,7.264,7.016,10.552,10.728l11.968-10.616
			C404.232,321.88,400.296,317.88,396.176,314.104z"/>
	</g>
</g>
<g>
	<g>
		<path d="M417.4,337.808l-12.92,9.44C422.488,371.904,432,401.208,432,432h16C448,397.8,437.424,365.224,417.4,337.808z"/>
	</g>
</g>
<g>
	<g>
		<path d="M480,480v-48c0-39.056-11.712-76.288-33.024-107.664l10.68-10.68c9.736-9.736,9.736-25.576,0-35.312
			c-0.536-0.544-1.176-0.936-1.76-1.416c-0.472-37.84-9.608-75.152-26.608-108.928H448v-8C448,71.776,376.224,0,288,0
			S128,71.776,128,160v8h18.704c-16.992,33.752-26.136,71.08-26.608,108.928c-0.584,0.48-1.216,0.88-1.76,1.416
			c-2.24,2.24-3.904,4.832-5.12,7.568L67.312,240H8v19.312l24,24v13.136c0,46.2,25.176,87.776,65.84,109.304
			C96.664,414.376,96,423.128,96,432v48h-8v16h400v-16H480z M446.344,289.656c3.488,3.496,3.488,9.192,0,12.688l-8.984,8.984
			c-3.76-4.64-7.76-9.104-11.968-13.408l8.264-8.264C437.048,286.264,442.952,286.264,446.344,289.656z M144.216,152
			C148.384,76.304,211.28,16,288,16s139.616,60.304,143.784,136H399.72C395.6,93.968,347.064,48,288,48
			c-59.064,0-107.6,45.968-111.72,104H144.216z M164.792,168.008H192V168v-8c0-52.936,43.064-96,96-96c52.936,0,96,43.064,96,96v8
			h27.208c17.392,31.728,27.152,67.168,28.512,103.288c-6.376,0.072-12.728,2.4-17.368,7.056l-8.616,8.616
			c-1.984-1.72-3.968-3.44-6.032-5.088C404.52,236.208,366.456,200,320,200h-4.448c2.752-4.728,4.448-10.144,4.448-16
			c0-17.648-14.352-32-32-32s-32,14.352-32,32c0,5.856,1.696,11.272,4.448,16H256c-46.48,0-84.568,36.256-87.696,81.96
			c-2.048,1.632-4.104,3.264-6.072,4.968l-8.576-8.576c-4.64-4.648-10.992-6.984-17.368-7.056
			C137.648,235.16,147.408,199.712,164.792,168.008z M304,184c0,8.824-7.176,16-16,16c-8.824,0-16-7.176-16-16
			c0-8.824,7.176-16,16-16C296.824,168,304,175.176,304,184z M129.656,289.656c3.392-3.392,9.296-3.392,12.688,0l8.272,8.272
			c-4.216,4.296-8.248,8.736-12.008,13.368l-8.96-8.96C126.168,298.848,126.168,293.152,129.656,289.656z M48,296.448v-19.76
			L27.312,256h33.376l57.656,57.656l10.648,10.648c-13.352,19.632-22.936,41.544-28.208,64.84C68.04,369.784,48,334.936,48,296.448z
			 M464,480H112v-48c0-53.184,23.424-102.4,64.392-136H344v-16H184.448C188.44,244.048,219,216,256,216h64
			c37,0,67.56,28.048,71.552,64H376v16h23.632C440.544,329.608,464,378.992,464,432V480z"/>
	</g>
</g>
<g>
</g>
<g>
</g>
<g>
</g>
<g>
</g>
<g>
</g>
<g>
</g>
<g>
</g>
<g>
</g>
<g>
</g>
<g>
</g>
<g>
</g>
<g>
</g>
<g>
</g>
<g>
</g>
<g>
</g>
</svg>
